<svg width="22" height="19" viewBox="0 0 22 19" fill="none" xmlns="http://www.w3.org/2000/svg">
<path fill-rule="evenodd" clip-rule="evenodd" d="M18.6235 15.0091C20.1809 13.4202 21.12 11.3648 21.12 9.12C21.12 4.08316 16.3921 0 10.56 0C4.72787 0 0 4.08316 0 9.12C0 14.1568 4.72787 18.24 10.56 18.24C13.1593 18.24 15.5392 17.429 17.379 16.0839L20.4977 18.7774C20.8414 19.0742 21.3986 19.0742 21.7423 18.7774C22.0859 18.4806 22.0859 17.9994 21.7423 17.7026L18.6235 15.0091ZM19.36 9.12C19.36 13.3174 15.4201 16.72 10.56 16.72C5.69989 16.72 1.76 13.3174 1.76 9.12C1.76 4.92264 5.69989 1.52 10.56 1.52C15.4201 1.52 19.36 4.92264 19.36 9.12Z" fill="black"/>
</svg>
